<svg width="32" height="32" viewBox="0 0 32 32" fill="none" xmlns="http://www.w3.org/2000/svg">
  <defs>
    <linearGradient id="gradient" x1="0%" y1="0%" x2="100%" y2="100%">
      <stop offset="0%" style="stop-color:#10b981;stop-opacity:1" />
      <stop offset="50%" style="stop-color:#059669;stop-opacity:1" />
      <stop offset="100%" style="stop-color:#0d9488;stop-opacity:1" />
    </linearGradient>
    <filter id="glow">
      <feGaussianBlur stdDeviation="2" result="coloredBlur"/>
      <feMerge> 
        <feMergeNode in="coloredBlur"/>
        <feMergeNode in="SourceGraphic"/>
      </feMerge>
    </filter>
  </defs>
  
  <!-- Main background -->
  <rect width="32" height="32" rx="8" fill="url(#gradient)"/>
  
  <!-- Glow effect -->
  <rect width="28" height="28" x="2" y="2" rx="6" fill="none" stroke="rgba(255,255,255,0.3)" stroke-width="1"/>
  
  <!-- WhatsApp-style chat bubble -->
  <path d="M8 12c0-4.4 3.6-8 8-8s8 3.6 8 8-3.6 8-8 8c-1.1 0-2.2-.2-3.2-.6L8 22l1.4-4.8c-.9-1.2-1.4-2.7-1.4-4.2z" 
        fill="white" 
        fill-opacity="0.9"
        filter="url(#glow)"/>
  
  <!-- Message lines inside bubble -->
  <line x1="12" y1="10" x2="20" y2="10" stroke="url(#gradient)" stroke-width="1.5" stroke-linecap="round"/>
  <line x1="12" y1="13" x2="18" y2="13" stroke="url(#gradient)" stroke-width="1.5" stroke-linecap="round"/>
  <line x1="12" y1="16" x2="16" y2="16" stroke="url(#gradient)" stroke-width="1.5" stroke-linecap="round"/>
  
  <!-- Status indicator -->
  <circle cx="24" cy="8" r="3" fill="#ffd700" stroke="white" stroke-width="1"/>
  <circle cx="24" cy="8" r="1.5" fill="#ff6b35"/>
  
  <!-- Connection dots -->
  <circle cx="6" cy="26" r="1.5" fill="rgba(255,255,255,0.8)"/>
  <circle cx="26" cy="26" r="1.5" fill="rgba(255,255,255,0.8)"/>
</svg>
